<?xml version="1.0" encoding="UTF-8" standalone="no"?>
<!DOCTYPE svg PUBLIC "-//W3C//DTD SVG 1.1//EN" "http://www.w3.org/Graphics/SVG/1.1/DTD/svg11.dtd">
<svg xmlns="http://www.w3.org/2000/svg" version="1.1" viewBox="0.00 0.00 380.00 330.00">
<g stroke-width="2.00" fill="none" stroke-linecap="butt">
<path stroke="#872c3d" vector-effect="non-scaling-stroke" d="
  M 239.49 153.05
  Q 241.32 149.94 244.91 149.00
  C 250.00 147.67 254.34 151.44 255.53 156.36
  Q 260.62 177.51 266.01 199.70
  Q 266.52 201.81 267.42 199.83
  C 271.61 190.62 278.45 184.02 288.69 181.66
  Q 293.92 180.46 298.08 180.46
  Q 314.75 180.47 330.58 180.43
  Q 333.95 180.42 335.51 177.23
  C 348.82 150.15 355.87 118.04 347.50 88.88
  Q 338.93 59.05 312.80 43.06
  C 290.61 29.49 265.26 25.57 240.76 35.69
  C 221.65 43.59 206.67 59.95 197.65 78.56
  C 193.85 86.41 186.86 86.11 183.17 78.06
  C 171.75 53.16 150.32 35.50 122.87 31.17
  C 99.03 27.40 75.51 34.80 57.61 50.95
  Q 29.44 76.35 29.83 115.35
  C 30.04 136.94 36.35 158.25 45.80 177.93
  C 46.67 179.74 48.34 180.44 50.23 180.43
  Q 66.05 180.35 82.79 180.60
  Q 90.88 180.72 94.43 179.16
  C 102.51 175.59 104.74 167.11 106.46 158.98
  C 107.65 153.36 111.92 146.40 118.95 149.40
  Q 123.08 151.15 124.45 156.78
  Q 129.97 179.37 134.40 198.22
  Q 135.15 201.43 136.05 198.26
  Q 137.44 193.34 138.56 188.92
  Q 149.71 145.08 159.90 102.18
  C 160.93 97.82 164.99 94.68 169.64 95.47
  Q 175.41 96.47 177.01 103.00
  Q 195.66 179.31 213.54 253.39
  Q 213.80 254.50 214.57 253.66
  Q 214.96 253.25 215.25 252.01
  Q 226.49 205.21 238.53 155.42
  A 8.52 8.44 67.3 0 1 239.49 153.05"
/>
<path stroke="#872c3d" vector-effect="non-scaling-stroke" d="
  M 278.49 212.63
  C 275.66 224.17 263.24 223.63 260.41 212.32
  Q 255.27 191.81 249.73 168.81
  Q 249.58 168.19 249.31 167.61
  Q 248.59 166.08 248.20 167.72
  Q 236.02 218.03 223.41 269.22
  Q 222.10 274.53 217.83 276.24
  C 211.65 278.72 206.44 273.14 205.11 267.60
  Q 187.15 193.07 167.86 111.92
  Q 167.76 111.49 167.36 111.29
  A 0.82 0.82 0.0 0 0 166.19 111.83
  Q 153.76 163.47 141.68 213.20
  C 139.38 222.66 126.57 224.26 124.04 213.78
  Q 118.34 190.20 112.52 166.93
  Q 111.83 164.17 110.75 166.81
  C 107.84 173.92 102.44 180.75 95.44 184.08
  C 89.29 187.00 81.87 187.91 74.99 187.91
  Q 45.19 187.95 18.80 188.27
  Q 18.59 188.27 18.44 188.41
  A 0.41 0.41 0.0 0 0 18.56 189.09
  C 36.43 196.72 54.61 204.77 67.82 219.01
  C 74.79 226.52 81.34 234.52 88.56 241.53
  Q 130.54 282.33 185.94 304.00
  Q 190.07 305.62 194.77 303.76
  Q 247.23 283.06 286.52 245.52
  C 298.02 234.52 308.75 222.87 319.60 211.36
  C 329.72 200.62 344.03 192.88 359.25 188.72
  Q 359.57 188.64 359.77 188.31
  Q 359.88 188.13 359.75 187.91
  A 0.33 0.32 -13.4 0 0 359.46 187.74
  Q 328.59 187.31 300.49 187.82
  C 291.97 187.97 285.55 191.06 282.44 199.51
  Q 280.24 205.49 278.49 212.63"
/>
</g>
<path fill="#0f0f0f" d="
  M 0.00 0.00
  L 380.00 0.00
  L 380.00 330.00
  L 0.00 330.00
  L 0.00 0.00
  Z
  M 239.49 153.05
  Q 241.32 149.94 244.91 149.00
  C 250.00 147.67 254.34 151.44 255.53 156.36
  Q 260.62 177.51 266.01 199.70
  Q 266.52 201.81 267.42 199.83
  C 271.61 190.62 278.45 184.02 288.69 181.66
  Q 293.92 180.46 298.08 180.46
  Q 314.75 180.47 330.58 180.43
  Q 333.95 180.42 335.51 177.23
  C 348.82 150.15 355.87 118.04 347.50 88.88
  Q 338.93 59.05 312.80 43.06
  C 290.61 29.49 265.26 25.57 240.76 35.69
  C 221.65 43.59 206.67 59.95 197.65 78.56
  C 193.85 86.41 186.86 86.11 183.17 78.06
  C 171.75 53.16 150.32 35.50 122.87 31.17
  C 99.03 27.40 75.51 34.80 57.61 50.95
  Q 29.44 76.35 29.83 115.35
  C 30.04 136.94 36.35 158.25 45.80 177.93
  C 46.67 179.74 48.34 180.44 50.23 180.43
  Q 66.05 180.35 82.79 180.60
  Q 90.88 180.72 94.43 179.16
  C 102.51 175.59 104.74 167.11 106.46 158.98
  C 107.65 153.36 111.92 146.40 118.95 149.40
  Q 123.08 151.15 124.45 156.78
  Q 129.97 179.37 134.40 198.22
  Q 135.15 201.43 136.05 198.26
  Q 137.44 193.34 138.56 188.92
  Q 149.71 145.08 159.90 102.18
  C 160.93 97.82 164.99 94.68 169.64 95.47
  Q 175.41 96.47 177.01 103.00
  Q 195.66 179.31 213.54 253.39
  Q 213.80 254.50 214.57 253.66
  Q 214.96 253.25 215.25 252.01
  Q 226.49 205.21 238.53 155.42
  A 8.52 8.44 67.3 0 1 239.49 153.05
  Z
  M 278.49 212.63
  C 275.66 224.17 263.24 223.63 260.41 212.32
  Q 255.27 191.81 249.73 168.81
  Q 249.58 168.19 249.31 167.61
  Q 248.59 166.08 248.20 167.72
  Q 236.02 218.03 223.41 269.22
  Q 222.10 274.53 217.83 276.24
  C 211.65 278.72 206.44 273.14 205.11 267.60
  Q 187.15 193.07 167.86 111.92
  Q 167.76 111.49 167.36 111.29
  A 0.82 0.82 0.0 0 0 166.19 111.83
  Q 153.76 163.47 141.68 213.20
  C 139.38 222.66 126.57 224.26 124.04 213.78
  Q 118.34 190.20 112.52 166.93
  Q 111.83 164.17 110.75 166.81
  C 107.84 173.92 102.44 180.75 95.44 184.08
  C 89.29 187.00 81.87 187.91 74.99 187.91
  Q 45.19 187.95 18.80 188.27
  Q 18.59 188.27 18.44 188.41
  A 0.41 0.41 0.0 0 0 18.56 189.09
  C 36.43 196.72 54.61 204.77 67.82 219.01
  C 74.79 226.52 81.34 234.52 88.56 241.53
  Q 130.54 282.33 185.94 304.00
  Q 190.07 305.62 194.77 303.76
  Q 247.23 283.06 286.52 245.52
  C 298.02 234.52 308.75 222.87 319.60 211.36
  C 329.72 200.62 344.03 192.88 359.25 188.72
  Q 359.57 188.64 359.77 188.31
  Q 359.88 188.13 359.75 187.91
  A 0.33 0.32 -13.4 0 0 359.46 187.74
  Q 328.59 187.31 300.49 187.82
  C 291.97 187.97 285.55 191.06 282.44 199.51
  Q 280.24 205.49 278.49 212.63
  Z"
/>
<g fill="#ff486a">
<path d="
  M 239.49 153.05
  A 8.52 8.44 67.3 0 0 238.53 155.42
  Q 226.49 205.21 215.25 252.01
  Q 214.96 253.25 214.57 253.66
  Q 213.80 254.50 213.54 253.39
  Q 195.66 179.31 177.01 103.00
  Q 175.41 96.47 169.64 95.47
  C 164.99 94.68 160.93 97.82 159.90 102.18
  Q 149.71 145.08 138.56 188.92
  Q 137.44 193.34 136.05 198.26
  Q 135.15 201.43 134.40 198.22
  Q 129.97 179.37 124.45 156.78
  Q 123.08 151.15 118.95 149.40
  C 111.92 146.40 107.65 153.36 106.46 158.98
  C 104.74 167.11 102.51 175.59 94.43 179.16
  Q 90.88 180.72 82.79 180.60
  Q 66.05 180.35 50.23 180.43
  C 48.34 180.44 46.67 179.74 45.80 177.93
  C 36.35 158.25 30.04 136.94 29.83 115.35
  Q 29.44 76.35 57.61 50.95
  C 75.51 34.80 99.03 27.40 122.87 31.17
  C 150.32 35.50 171.75 53.16 183.17 78.06
  C 186.86 86.11 193.85 86.41 197.65 78.56
  C 206.67 59.95 221.65 43.59 240.76 35.69
  C 265.26 25.57 290.61 29.49 312.80 43.06
  Q 338.93 59.05 347.50 88.88
  C 355.87 118.04 348.82 150.15 335.51 177.23
  Q 333.95 180.42 330.58 180.43
  Q 314.75 180.47 298.08 180.46
  Q 293.92 180.46 288.69 181.66
  C 278.45 184.02 271.61 190.62 267.42 199.83
  Q 266.52 201.81 266.01 199.70
  Q 260.62 177.51 255.53 156.36
  C 254.34 151.44 250.00 147.67 244.91 149.00
  Q 241.32 149.94 239.49 153.05
  Z"
/>
<path d="
  M 260.41 212.32
  C 263.24 223.63 275.66 224.17 278.49 212.63
  Q 280.24 205.49 282.44 199.51
  C 285.55 191.06 291.97 187.97 300.49 187.82
  Q 328.59 187.31 359.46 187.74
  A 0.33 0.32 -13.4 0 1 359.75 187.91
  Q 359.88 188.13 359.77 188.31
  Q 359.57 188.64 359.25 188.72
  C 344.03 192.88 329.72 200.62 319.60 211.36
  C 308.75 222.87 298.02 234.52 286.52 245.52
  Q 247.23 283.06 194.77 303.76
  Q 190.07 305.62 185.94 304.00
  Q 130.54 282.33 88.56 241.53
  C 81.34 234.52 74.79 226.52 67.82 219.01
  C 54.61 204.77 36.43 196.72 18.56 189.09
  A 0.41 0.41 0.0 0 1 18.44 188.41
  Q 18.59 188.27 18.80 188.27
  Q 45.19 187.95 74.99 187.91
  C 81.87 187.91 89.29 187.00 95.44 184.08
  C 102.44 180.75 107.84 173.92 110.75 166.81
  Q 111.83 164.17 112.52 166.93
  Q 118.34 190.20 124.04 213.78
  C 126.57 224.26 139.38 222.66 141.68 213.20
  Q 153.76 163.47 166.19 111.83
  A 0.82 0.82 0.0 0 1 167.36 111.29
  Q 167.76 111.49 167.86 111.92
  Q 187.15 193.07 205.11 267.60
  C 206.44 273.14 211.65 278.72 217.83 276.24
  Q 222.10 274.53 223.41 269.22
  Q 236.02 218.03 248.20 167.72
  Q 248.59 166.08 249.31 167.61
  Q 249.58 168.19 249.73 168.81
  Q 255.27 191.81 260.41 212.32
  Z"
/>
</g>
</svg>
