<?xml version="1.0" encoding="UTF-8" standalone="no"?>
<!DOCTYPE svg PUBLIC "-//W3C//DTD SVG 1.1//EN" "http://www.w3.org/Graphics/SVG/1.1/DTD/svg11.dtd">
<svg xmlns="http://www.w3.org/2000/svg" version="1.1" viewBox="0.00 0.00 371.00 439.00">
<g stroke-width="2.00" fill="none" stroke-linecap="butt">
<path stroke="#872c3d" vector-effect="non-scaling-stroke" d="
  M 230.95 148.11
  C 234.53 139.73 245.46 141.79 247.46 150.09
  Q 252.97 172.94 258.00 193.66
  Q 258.53 195.86 259.45 193.80
  C 263.53 184.65 270.40 178.11 280.52 175.71
  Q 285.41 174.55 289.18 174.51
  Q 303.81 174.37 322.37 174.44
  Q 325.90 174.45 327.41 171.41
  C 339.49 147.07 345.96 119.76 341.74 93.07
  C 338.09 70.01 325.62 49.94 305.85 37.70
  C 278.80 20.97 248.59 18.67 221.18 35.79
  C 207.49 44.35 196.81 58.11 189.39 73.03
  C 185.55 80.75 178.50 79.49 175.28 72.30
  C 165.42 50.29 146.72 33.17 123.16 26.90
  C 101.29 21.08 77.09 24.85 58.24 38.09
  C 42.87 48.88 30.25 64.87 25.25 82.92
  C 17.12 112.28 24.34 142.52 37.19 170.86
  C 38.14 172.95 39.48 174.43 41.92 174.43
  Q 58.38 174.43 77.35 174.56
  C 83.22 174.60 88.37 173.48 92.23 168.80
  C 96.63 163.46 97.22 156.99 99.17 150.68
  C 100.83 145.30 105.14 140.89 111.08 143.45
  C 114.12 144.76 115.74 147.79 116.48 150.84
  Q 121.21 170.26 126.56 192.76
  Q 127.12 195.13 127.84 192.80
  Q 128.95 189.23 129.76 186.07
  Q 140.33 144.89 151.43 97.98
  Q 152.06 95.29 153.38 93.08
  C 157.41 86.33 167.14 89.28 168.89 96.38
  Q 186.67 168.63 204.98 245.53
  Q 205.19 246.38 205.49 247.07
  Q 206.42 249.21 206.96 246.94
  L 230.56 149.26
  A 7.82 7.78 -26.4 0 1 230.95 148.11"
/>
<path stroke="#872c3d" vector-effect="non-scaling-stroke" d="
  M 10.49 183.04
  C 28.92 191.03 48.62 199.49 61.93 215.27
  Q 109.21 271.31 178.19 298.01
  Q 182.16 299.54 185.94 298.06
  Q 222.35 283.81 251.96 261.88
  C 270.19 248.38 286.82 232.36 301.89 215.59
  Q 312.45 203.84 317.73 199.64
  Q 332.26 188.08 349.44 183.22
  Q 354.67 181.74 349.23 181.70
  Q 322.49 181.48 297.91 181.63
  Q 287.87 181.69 283.94 183.26
  Q 276.65 186.17 273.95 194.76
  Q 272.02 200.89 270.17 207.57
  C 268.34 214.17 260.52 218.23 255.32 212.21
  Q 253.28 209.85 252.45 206.50
  Q 246.87 184.12 241.87 163.37
  Q 241.60 162.23 241.32 161.61
  Q 240.60 160.04 240.19 161.72
  Q 227.91 212.53 215.25 263.81
  Q 214.30 267.69 210.96 269.69
  C 205.12 273.17 198.68 268.06 197.30 262.31
  Q 178.44 184.14 159.83 105.78
  Q 159.78 105.56 159.58 105.44
  Q 158.44 104.74 158.13 106.04
  Q 145.91 156.91 133.62 207.40
  C 131.20 217.31 118.40 217.68 115.94 207.46
  Q 110.25 183.80 104.26 159.90
  A 0.44 0.44 0.0 0 0 103.56 159.66
  Q 103.00 160.09 102.73 160.75
  C 95.37 178.26 82.25 181.87 65.01 181.90
  Q 36.74 181.96 11.03 182.24
  Q 10.73 182.24 10.47 182.38
  A 0.37 0.36 -47.1 0 0 10.49 183.04"
/>
<path stroke="#872c3d" vector-effect="non-scaling-stroke" d="
  M 190.04 404.39
  C 193.41 412.14 199.45 416.39 207.78 417.94
  Q 221.22 420.45 234.02 417.70
  C 246.55 415.01 252.60 405.64 254.33 393.52
  Q 257.54 371.04 254.00 350.21
  C 252.60 341.91 247.89 332.94 240.01 329.58
  C 230.57 325.55 216.45 325.58 206.76 327.80
  C 191.06 331.39 186.63 346.95 185.71 361.34
  Q 184.84 375.16 185.88 387.46
  Q 186.65 396.58 190.04 404.39"
/>
<path stroke="#872c3d" vector-effect="non-scaling-stroke" d="
  M 282.57 367.58
  L 282.53 327.92
  A 0.86 0.86 0.0 0 0 281.67 327.06
  L 273.19 327.07
  A 0.67 0.67 0.0 0 0 272.52 327.74
  L 272.52 417.74
  A 0.47 0.46 0.0 0 0 272.99 418.20
  L 281.84 418.18
  Q 282.60 418.18 282.60 417.41
  L 282.55 377.83
  A 0.62 0.61 0.0 0 1 283.17 377.22
  L 297.46 377.22
  A 1.91 1.89 73.9 0 1 299.07 378.12
  L 323.25 417.49
  A 1.49 1.48 74.3 0 0 324.49 418.19
  L 333.25 418.22
  Q 334.09 418.22 333.78 417.45
  Q 333.35 416.37 332.74 415.38
  Q 319.66 394.05 306.69 372.93
  A 0.64 0.64 0.0 0 1 306.69 372.27
  L 333.34 328.19
  A 0.76 0.76 0.0 0 0 332.68 327.03
  L 324.45 327.06
  A 1.64 1.63 -74.3 0 0 323.05 327.85
  L 298.93 367.61
  A 1.58 1.58 0.0 0 1 297.58 368.37
  L 283.33 368.34
  Q 282.57 368.33 282.57 367.58"
/>
<path stroke="#878787" vector-effect="non-scaling-stroke" d="
  M 71.43 353.13
  A 0.62 0.62 0.0 0 1 70.41 353.01
  L 66.53 345.39
  A 1.78 1.77 -13.2 0 0 64.94 344.41
  L 50.05 344.41
  A 0.80 0.79 -0.0 0 0 49.25 345.20
  L 49.25 409.49
  A 1.50 1.49 -90.0 0 0 50.74 410.99
  L 69.78 410.99
  A 0.96 0.95 0.0 0 0 70.74 410.04
  Q 70.81 392.51 70.73 373.73
  C 70.72 369.75 75.24 367.31 78.44 366.40
  Q 84.92 364.56 91.66 365.84
  Q 93.43 366.17 93.45 364.37
  Q 93.58 355.03 93.61 345.50
  Q 93.61 343.59 91.54 343.44
  C 81.66 342.74 77.17 346.50 71.43 353.13"
/>
<path stroke="#878787" vector-effect="non-scaling-stroke" d="
  M 143.15 405.49
  L 145.35 409.67
  Q 146.03 410.98 147.51 410.98
  L 162.76 410.98
  A 1.25 1.24 0.0 0 0 164.01 409.74
  L 164.01 344.87
  A 0.44 0.44 0.0 0 0 163.57 344.43
  L 143.32 344.42
  Q 142.56 344.42 142.56 345.18
  L 142.55 387.54
  A 1.97 1.96 73.4 0 1 141.67 389.18
  C 137.00 392.28 123.54 396.59 123.52 386.00
  Q 123.49 367.88 123.52 344.96
  A 0.55 0.55 0.0 0 0 122.97 344.41
  L 102.55 344.41
  A 0.74 0.74 0.0 0 0 101.81 345.16
  Q 101.85 368.29 101.79 389.37
  C 101.76 397.17 103.76 405.39 110.95 409.50
  C 117.95 413.49 128.47 411.52 135.62 408.11
  Q 138.68 406.65 141.70 405.04
  A 1.07 1.06 62.1 0 1 143.15 405.49"
/>
<path stroke="#872c3d" vector-effect="non-scaling-stroke" d="
  M 233.46 336.92
  Q 224.66 334.13 213.45 335.72
  Q 199.36 337.72 196.96 352.15
  Q 193.72 371.58 196.57 392.93
  C 197.50 399.89 201.48 407.18 208.78 408.88
  C 221.09 411.75 240.40 412.00 243.78 395.79
  Q 248.21 374.54 244.27 351.33
  C 243.25 345.35 239.54 338.84 233.46 336.92"
/>
</g>
<g fill="#000000">
<path d="
  M 0.00 0.00
  L 371.00 0.00
  L 371.00 439.00
  L 0.00 439.00
  L 0.00 0.00
  Z
  M 230.95 148.11
  C 234.53 139.73 245.46 141.79 247.46 150.09
  Q 252.97 172.94 258.00 193.66
  Q 258.53 195.86 259.45 193.80
  C 263.53 184.65 270.40 178.11 280.52 175.71
  Q 285.41 174.55 289.18 174.51
  Q 303.81 174.37 322.37 174.44
  Q 325.90 174.45 327.41 171.41
  C 339.49 147.07 345.96 119.76 341.74 93.07
  C 338.09 70.01 325.62 49.94 305.85 37.70
  C 278.80 20.97 248.59 18.67 221.18 35.79
  C 207.49 44.35 196.81 58.11 189.39 73.03
  C 185.55 80.75 178.50 79.49 175.28 72.30
  C 165.42 50.29 146.72 33.17 123.16 26.90
  C 101.29 21.08 77.09 24.85 58.24 38.09
  C 42.87 48.88 30.25 64.87 25.25 82.92
  C 17.12 112.28 24.34 142.52 37.19 170.86
  C 38.14 172.95 39.48 174.43 41.92 174.43
  Q 58.38 174.43 77.35 174.56
  C 83.22 174.60 88.37 173.48 92.23 168.80
  C 96.63 163.46 97.22 156.99 99.17 150.68
  C 100.83 145.30 105.14 140.89 111.08 143.45
  C 114.12 144.76 115.74 147.79 116.48 150.84
  Q 121.21 170.26 126.56 192.76
  Q 127.12 195.13 127.84 192.80
  Q 128.95 189.23 129.76 186.07
  Q 140.33 144.89 151.43 97.98
  Q 152.06 95.29 153.38 93.08
  C 157.41 86.33 167.14 89.28 168.89 96.38
  Q 186.67 168.63 204.98 245.53
  Q 205.19 246.38 205.49 247.07
  Q 206.42 249.21 206.96 246.94
  L 230.56 149.26
  A 7.82 7.78 -26.4 0 1 230.95 148.11
  Z
  M 10.49 183.04
  C 28.92 191.03 48.62 199.49 61.93 215.27
  Q 109.21 271.31 178.19 298.01
  Q 182.16 299.54 185.94 298.06
  Q 222.35 283.81 251.96 261.88
  C 270.19 248.38 286.82 232.36 301.89 215.59
  Q 312.45 203.84 317.73 199.64
  Q 332.26 188.08 349.44 183.22
  Q 354.67 181.74 349.23 181.70
  Q 322.49 181.48 297.91 181.63
  Q 287.87 181.69 283.94 183.26
  Q 276.65 186.17 273.95 194.76
  Q 272.02 200.89 270.17 207.57
  C 268.34 214.17 260.52 218.23 255.32 212.21
  Q 253.28 209.85 252.45 206.50
  Q 246.87 184.12 241.87 163.37
  Q 241.60 162.23 241.32 161.61
  Q 240.60 160.04 240.19 161.72
  Q 227.91 212.53 215.25 263.81
  Q 214.30 267.69 210.96 269.69
  C 205.12 273.17 198.68 268.06 197.30 262.31
  Q 178.44 184.14 159.83 105.78
  Q 159.78 105.56 159.58 105.44
  Q 158.44 104.74 158.13 106.04
  Q 145.91 156.91 133.62 207.40
  C 131.20 217.31 118.40 217.68 115.94 207.46
  Q 110.25 183.80 104.26 159.90
  A 0.44 0.44 0.0 0 0 103.56 159.66
  Q 103.00 160.09 102.73 160.75
  C 95.37 178.26 82.25 181.87 65.01 181.90
  Q 36.74 181.96 11.03 182.24
  Q 10.73 182.24 10.47 182.38
  A 0.37 0.36 -47.1 0 0 10.49 183.04
  Z
  M 190.04 404.39
  C 193.41 412.14 199.45 416.39 207.78 417.94
  Q 221.22 420.45 234.02 417.70
  C 246.55 415.01 252.60 405.64 254.33 393.52
  Q 257.54 371.04 254.00 350.21
  C 252.60 341.91 247.89 332.94 240.01 329.58
  C 230.57 325.55 216.45 325.58 206.76 327.80
  C 191.06 331.39 186.63 346.95 185.71 361.34
  Q 184.84 375.16 185.88 387.46
  Q 186.65 396.58 190.04 404.39
  Z
  M 282.57 367.58
  L 282.53 327.92
  A 0.86 0.86 0.0 0 0 281.67 327.06
  L 273.19 327.07
  A 0.67 0.67 0.0 0 0 272.52 327.74
  L 272.52 417.74
  A 0.47 0.46 0.0 0 0 272.99 418.20
  L 281.84 418.18
  Q 282.60 418.18 282.60 417.41
  L 282.55 377.83
  A 0.62 0.61 0.0 0 1 283.17 377.22
  L 297.46 377.22
  A 1.91 1.89 73.9 0 1 299.07 378.12
  L 323.25 417.49
  A 1.49 1.48 74.3 0 0 324.49 418.19
  L 333.25 418.22
  Q 334.09 418.22 333.78 417.45
  Q 333.35 416.37 332.74 415.38
  Q 319.66 394.05 306.69 372.93
  A 0.64 0.64 0.0 0 1 306.69 372.27
  L 333.34 328.19
  A 0.76 0.76 0.0 0 0 332.68 327.03
  L 324.45 327.06
  A 1.64 1.63 -74.3 0 0 323.05 327.85
  L 298.93 367.61
  A 1.58 1.58 0.0 0 1 297.58 368.37
  L 283.33 368.34
  Q 282.57 368.33 282.57 367.58
  Z
  M 71.43 353.13
  A 0.62 0.62 0.0 0 1 70.41 353.01
  L 66.53 345.39
  A 1.78 1.77 -13.2 0 0 64.94 344.41
  L 50.05 344.41
  A 0.80 0.79 -0.0 0 0 49.25 345.20
  L 49.25 409.49
  A 1.50 1.49 -90.0 0 0 50.74 410.99
  L 69.78 410.99
  A 0.96 0.95 0.0 0 0 70.74 410.04
  Q 70.81 392.51 70.73 373.73
  C 70.72 369.75 75.24 367.31 78.44 366.40
  Q 84.92 364.56 91.66 365.84
  Q 93.43 366.17 93.45 364.37
  Q 93.58 355.03 93.61 345.50
  Q 93.61 343.59 91.54 343.44
  C 81.66 342.74 77.17 346.50 71.43 353.13
  Z
  M 143.15 405.49
  L 145.35 409.67
  Q 146.03 410.98 147.51 410.98
  L 162.76 410.98
  A 1.25 1.24 0.0 0 0 164.01 409.74
  L 164.01 344.87
  A 0.44 0.44 0.0 0 0 163.57 344.43
  L 143.32 344.42
  Q 142.56 344.42 142.56 345.18
  L 142.55 387.54
  A 1.97 1.96 73.4 0 1 141.67 389.18
  C 137.00 392.28 123.54 396.59 123.52 386.00
  Q 123.49 367.88 123.52 344.96
  A 0.55 0.55 0.0 0 0 122.97 344.41
  L 102.55 344.41
  A 0.74 0.74 0.0 0 0 101.81 345.16
  Q 101.85 368.29 101.79 389.37
  C 101.76 397.17 103.76 405.39 110.95 409.50
  C 117.95 413.49 128.47 411.52 135.62 408.11
  Q 138.68 406.65 141.70 405.04
  A 1.07 1.06 62.1 0 1 143.15 405.49
  Z"
/>
<path d="
  M 233.46 336.92
  C 239.54 338.84 243.25 345.35 244.27 351.33
  Q 248.21 374.54 243.78 395.79
  C 240.40 412.00 221.09 411.75 208.78 408.88
  C 201.48 407.18 197.50 399.89 196.57 392.93
  Q 193.72 371.58 196.96 352.15
  Q 199.36 337.72 213.45 335.72
  Q 224.66 334.13 233.46 336.92
  Z"
/>
</g>
<g fill="#ff486a">
<path d="
  M 230.95 148.11
  A 7.82 7.78 -26.4 0 0 230.56 149.26
  L 206.96 246.94
  Q 206.42 249.21 205.49 247.07
  Q 205.19 246.38 204.98 245.53
  Q 186.67 168.63 168.89 96.38
  C 167.14 89.28 157.41 86.33 153.38 93.08
  Q 152.06 95.29 151.43 97.98
  Q 140.33 144.89 129.76 186.07
  Q 128.95 189.23 127.84 192.80
  Q 127.12 195.13 126.56 192.76
  Q 121.21 170.26 116.48 150.84
  C 115.74 147.79 114.12 144.76 111.08 143.45
  C 105.14 140.89 100.83 145.30 99.17 150.68
  C 97.22 156.99 96.63 163.46 92.23 168.80
  C 88.37 173.48 83.22 174.60 77.35 174.56
  Q 58.38 174.43 41.92 174.43
  C 39.48 174.43 38.14 172.95 37.19 170.86
  C 24.34 142.52 17.12 112.28 25.25 82.92
  C 30.25 64.87 42.87 48.88 58.24 38.09
  C 77.09 24.85 101.29 21.08 123.16 26.90
  C 146.72 33.17 165.42 50.29 175.28 72.30
  C 178.50 79.49 185.55 80.75 189.39 73.03
  C 196.81 58.11 207.49 44.35 221.18 35.79
  C 248.59 18.67 278.80 20.97 305.85 37.70
  C 325.62 49.94 338.09 70.01 341.74 93.07
  C 345.96 119.76 339.49 147.07 327.41 171.41
  Q 325.90 174.45 322.37 174.44
  Q 303.81 174.37 289.18 174.51
  Q 285.41 174.55 280.52 175.71
  C 270.40 178.11 263.53 184.65 259.45 193.80
  Q 258.53 195.86 258.00 193.66
  Q 252.97 172.94 247.46 150.09
  C 245.46 141.79 234.53 139.73 230.95 148.11
  Z"
/>
<path d="
  M 61.93 215.27
  C 48.62 199.49 28.92 191.03 10.49 183.04
  A 0.37 0.36 -47.1 0 1 10.47 182.38
  Q 10.73 182.24 11.03 182.24
  Q 36.74 181.96 65.01 181.90
  C 82.25 181.87 95.37 178.26 102.73 160.75
  Q 103.00 160.09 103.56 159.66
  A 0.44 0.44 0.0 0 1 104.26 159.90
  Q 110.25 183.80 115.94 207.46
  C 118.40 217.68 131.20 217.31 133.62 207.40
  Q 145.91 156.91 158.13 106.04
  Q 158.44 104.74 159.58 105.44
  Q 159.78 105.56 159.83 105.78
  Q 178.44 184.14 197.30 262.31
  C 198.68 268.06 205.12 273.17 210.96 269.69
  Q 214.30 267.69 215.25 263.81
  Q 227.91 212.53 240.19 161.72
  Q 240.60 160.04 241.32 161.61
  Q 241.60 162.23 241.87 163.37
  Q 246.87 184.12 252.45 206.50
  Q 253.28 209.85 255.32 212.21
  C 260.52 218.23 268.34 214.17 270.17 207.57
  Q 272.02 200.89 273.95 194.76
  Q 276.65 186.17 283.94 183.26
  Q 287.87 181.69 297.91 181.63
  Q 322.49 181.48 349.23 181.70
  Q 354.67 181.74 349.44 183.22
  Q 332.26 188.08 317.73 199.64
  Q 312.45 203.84 301.89 215.59
  C 286.82 232.36 270.19 248.38 251.96 261.88
  Q 222.35 283.81 185.94 298.06
  Q 182.16 299.54 178.19 298.01
  Q 109.21 271.31 61.93 215.27
  Z"
/>
<path d="
  M 207.78 417.94
  C 199.45 416.39 193.41 412.14 190.04 404.39
  Q 186.65 396.58 185.88 387.46
  Q 184.84 375.16 185.71 361.34
  C 186.63 346.95 191.06 331.39 206.76 327.80
  C 216.45 325.58 230.57 325.55 240.01 329.58
  C 247.89 332.94 252.60 341.91 254.00 350.21
  Q 257.54 371.04 254.33 393.52
  C 252.60 405.64 246.55 415.01 234.02 417.70
  Q 221.22 420.45 207.78 417.94
  Z
  M 233.46 336.92
  Q 224.66 334.13 213.45 335.72
  Q 199.36 337.72 196.96 352.15
  Q 193.72 371.58 196.57 392.93
  C 197.50 399.89 201.48 407.18 208.78 408.88
  C 221.09 411.75 240.40 412.00 243.78 395.79
  Q 248.21 374.54 244.27 351.33
  C 243.25 345.35 239.54 338.84 233.46 336.92
  Z"
/>
<path d="
  M 283.33 368.34
  L 297.58 368.37
  A 1.58 1.58 0.0 0 0 298.93 367.61
  L 323.05 327.85
  A 1.64 1.63 -74.3 0 1 324.45 327.06
  L 332.68 327.03
  A 0.76 0.76 0.0 0 1 333.34 328.19
  L 306.69 372.27
  A 0.64 0.64 0.0 0 0 306.69 372.93
  Q 319.66 394.05 332.74 415.38
  Q 333.35 416.37 333.78 417.45
  Q 334.09 418.22 333.25 418.22
  L 324.49 418.19
  A 1.49 1.48 74.3 0 1 323.25 417.49
  L 299.07 378.12
  A 1.91 1.89 73.9 0 0 297.46 377.22
  L 283.17 377.22
  A 0.62 0.61 -0.0 0 0 282.55 377.83
  L 282.60 417.41
  Q 282.60 418.18 281.84 418.18
  L 272.99 418.20
  A 0.47 0.46 0.0 0 1 272.52 417.74
  L 272.52 327.74
  A 0.67 0.67 0.0 0 1 273.19 327.07
  L 281.67 327.06
  A 0.86 0.86 0.0 0 1 282.53 327.92
  L 282.57 367.58
  Q 282.57 368.33 283.33 368.34
  Z"
/>
</g>
<g fill="#ffffff">
<path d="
  M 71.43 353.13
  C 77.17 346.50 81.66 342.74 91.54 343.44
  Q 93.61 343.59 93.61 345.50
  Q 93.58 355.03 93.45 364.37
  Q 93.43 366.17 91.66 365.84
  Q 84.92 364.56 78.44 366.40
  C 75.24 367.31 70.72 369.75 70.73 373.73
  Q 70.81 392.51 70.74 410.04
  A 0.96 0.95 -0.0 0 1 69.78 410.99
  L 50.74 410.99
  A 1.50 1.49 90.0 0 1 49.25 409.49
  L 49.25 345.20
  A 0.80 0.79 -0.0 0 1 50.05 344.41
  L 64.94 344.41
  A 1.78 1.77 -13.2 0 1 66.53 345.39
  L 70.41 353.01
  A 0.62 0.62 0.0 0 0 71.43 353.13
  Z"
/>
<path d="
  M 143.15 405.49
  A 1.07 1.06 62.1 0 0 141.70 405.04
  Q 138.68 406.65 135.62 408.11
  C 128.47 411.52 117.95 413.49 110.95 409.50
  C 103.76 405.39 101.76 397.17 101.79 389.37
  Q 101.85 368.29 101.81 345.16
  A 0.74 0.74 0.0 0 1 102.55 344.41
  L 122.97 344.41
  A 0.55 0.55 0.0 0 1 123.52 344.96
  Q 123.49 367.88 123.52 386.00
  C 123.54 396.59 137.00 392.28 141.67 389.18
  A 1.97 1.96 73.4 0 0 142.55 387.54
  L 142.56 345.18
  Q 142.56 344.42 143.32 344.42
  L 163.57 344.43
  A 0.44 0.44 0.0 0 1 164.01 344.87
  L 164.01 409.74
  A 1.25 1.24 -0.0 0 1 162.76 410.98
  L 147.51 410.98
  Q 146.03 410.98 145.35 409.67
  L 143.15 405.49
  Z"
/>
</g>
</svg>
